<svg width="384" height="430" viewBox="0 0 384 430" fill="none" xmlns="http://www.w3.org/2000/svg">
    <path fill-rule="evenodd" clip-rule="evenodd" d="M328.506 73.3089L259.555 33.834L235.803 122.476C235.542 123.483 235.372 124.493 235.289 125.497C237.607 125.215 239.908 124.471 242.058 123.229L328.506 73.3089ZM225.633 123.979C226.302 122.755 226.837 121.432 227.214 120.024L251.539 29.2446L209.736 5.3126C198.761 -0.970746 185.239 -0.970748 174.264 5.3126L158.555 14.3059L217.728 116.817C219.643 120.077 222.436 122.506 225.633 123.979ZM150.803 18.7443L32.5782 86.4282L205.335 132.663C207.592 133.267 209.863 133.41 212.05 133.151C212.742 129.184 212.103 124.962 209.943 121.2L209.922 121.162L150.803 18.7443ZM206.953 142.856C205.779 142.218 204.514 141.702 203.17 141.33L203.111 141.314C203.082 141.306 203.053 141.298 203.024 141.29L21.572 92.7292L17.7362 94.9253C6.76101 101.209 2.56123e-05 112.821 2.5063e-05 125.387L-1.14703e-05 263.01L203.379 145.565C204.709 144.797 205.904 143.884 206.953 142.856ZM-1.19211e-05 273.322L-1.32888e-05 304.613C-1.38381e-05 317.179 6.761 328.792 17.7362 335.075L149.395 410.45L215.655 163.165C216.782 158.956 216.309 154.697 214.609 151.033C212.319 151.312 210.046 152.042 207.918 153.257L207.843 153.3L-1.19211e-05 273.322ZM229.847 156.586C227.263 158.818 225.291 161.812 224.317 165.344C224.305 165.387 224.293 165.43 224.282 165.474L157.411 415.039L174.264 424.688C185.239 430.971 198.761 430.971 209.736 424.688L341.562 349.217L232.244 159.834C231.555 158.639 230.748 157.554 229.847 156.586ZM349.315 344.778L366.264 335.075C377.239 328.792 384 317.18 384 304.613L384 189.725L246.044 152.804C243.545 152.153 241.029 152.065 238.632 152.462C238.988 153.452 239.436 154.424 239.981 155.367L349.315 344.778ZM239.453 138.489C241.724 141.18 244.812 143.228 248.472 144.207L384 180.478L384 125.387C384 112.821 377.239 101.209 366.264 94.9253L337.474 78.4429L246.441 131.011C243.316 132.838 240.949 135.468 239.453 138.489Z" fill="url(#paint0_radial_474_70)"/>
    <mask id="mask0_474_70" style="mask-type:alpha" maskUnits="userSpaceOnUse" x="0" y="0" width="384" height="430">
        <path d="M384 304.613C384 317.18 377.239 328.792 366.264 335.075L209.736 424.688C198.761 430.971 185.239 430.971 174.264 424.688L17.7362 335.075C6.761 328.792 -1.38381e-05 317.179 -1.32888e-05 304.613L2.5063e-05 125.387C2.56123e-05 112.821 6.76101 101.209 17.7362 94.9253L174.264 5.3126C185.239 -0.970748 198.761 -0.970746 209.736 5.3126L366.264 94.9253C377.239 101.209 384 112.821 384 125.387L384 304.613Z" fill="white"/>
    </mask>
    <g mask="url(#mask0_474_70)">
        <g opacity="0.5">
            <path d="M212.05 133.151C212.742 129.184 212.103 124.962 209.943 121.2L209.922 121.162L42.5011 -168.877L50.237 -173.344L217.728 116.817C219.643 120.077 222.436 122.506 225.633 123.98C222.845 129.084 217.734 132.478 212.05 133.151Z" fill="white"/>
            <path d="M206.954 142.856C205.904 143.884 204.709 144.797 203.379 145.565L-82.8505 310.853L-78.3859 318.588L207.843 153.3L207.918 153.257C210.046 152.042 212.319 151.312 214.61 151.033C213.024 147.615 210.371 144.715 206.954 142.856Z" fill="white"/>
            <path d="M229.847 156.586C230.748 157.555 231.555 158.639 232.244 159.834L397.433 446.006L405.169 441.539L239.981 155.367C239.436 154.424 238.988 153.452 238.632 152.462C235.369 153.003 232.326 154.443 229.847 156.586Z" fill="white"/>
            <path d="M239.453 138.489C240.95 135.468 243.316 132.838 246.441 131.011L536.62 -36.5573L532.156 -44.2917L235.229 127.173C235.278 131.369 236.814 135.363 239.453 138.489Z" fill="white"/>
            <path d="M235.229 127.173L242.058 123.229C239.908 124.471 237.607 125.215 235.289 125.497C235.242 126.058 235.223 126.618 235.229 127.173Z" fill="white"/>
        </g>
    </g>
    <defs>
        <radialGradient id="paint0_radial_474_70" cx="0" cy="0" r="1" gradientUnits="userSpaceOnUse" gradientTransform="translate(273.6 152.6) rotate(-168.906) scale(278.81 286.84)">
            <stop stop-color="#F4FF00"/>
            <stop offset="0.0001" stop-color="#D8FF00"/>
            <stop offset="1" stop-color="#D402BF"/>
        </radialGradient>
    </defs>
</svg>
