<svg width="1280" height="1690" viewBox="0 0 1280 1690" fill="none" xmlns="http://www.w3.org/2000/svg">
<path opacity="0.05" d="M1690.99 180.433C1706.79 239.33 1689.6 302.278 1645.91 345.567L1022.76 962.948C979.064 1006.24 915.498 1023.29 856.005 1007.68L7.51862 785.085C-51.9744 769.477 -98.3569 723.581 -114.157 664.685L-339.49 -175.293C-355.29 -234.189 -338.107 -297.138 -294.413 -340.427L328.74 -957.808C372.433 -1001.1 435.998 -1018.15 495.492 -1002.54L1343.98 -779.945C1403.47 -764.337 1449.85 -718.44 1465.65 -659.544L1690.99 180.433Z" fill="white"/>
<path opacity="0.02" d="M1922.9 371.644C1943.92 450.005 1921.06 533.757 1862.93 591.352L1033.83 1412.77C975.699 1470.36 891.126 1493.05 811.971 1472.29L-316.928 1176.12C-396.082 1155.36 -457.793 1094.29 -478.815 1015.93L-778.618 -101.644C-799.639 -180.005 -776.777 -263.757 -718.644 -321.352L110.452 -1142.77C168.585 -1200.36 253.158 -1223.05 332.313 -1202.29L1461.21 -906.124C1540.37 -885.358 1602.08 -824.294 1623.1 -745.933L1922.9 371.644Z" fill="white"/>
<path d="M1482.21 141.221C1494.49 186.993 1481.14 235.914 1447.18 269.556L962.892 749.357C928.935 782.999 879.535 796.252 833.299 784.122L173.893 611.13C127.657 599 91.6111 563.331 79.3322 517.56L-95.7873 -135.234C-108.066 -181.006 -94.7121 -229.926 -60.7555 -263.569L423.532 -743.37C457.488 -777.012 506.889 -790.264 553.124 -778.135L1212.53 -605.143C1258.77 -593.013 1294.81 -557.344 1307.09 -511.572L1482.21 141.221Z" fill="url(#paint0_radial_983_25994)"/>
<path opacity="0.25" d="M1400.99 126.96C1411.98 167.939 1400.02 211.74 1369.62 241.865L934.243 673.282C903.842 703.407 859.614 715.276 818.222 704.417L225.445 548.905C184.053 538.046 151.788 506.111 140.798 465.133L-16.6 -121.795C-27.5893 -162.774 -15.6343 -206.575 14.7669 -236.7L450.145 -668.117C480.547 -698.242 524.774 -710.111 566.167 -699.252L1158.94 -543.74C1200.33 -532.881 1232.6 -500.946 1243.59 -459.968L1400.99 126.96Z" stroke="#22221D"/>
<path opacity="0.6" d="M1320.18 112.86C1329.9 149.115 1319.32 187.867 1292.42 214.519L906.996 596.411C880.097 623.063 840.963 633.563 804.338 623.955L279.556 486.281C242.931 476.673 214.382 448.418 204.658 412.163L65.3028 -107.403C55.5787 -143.657 66.1556 -182.41 93.0544 -209.062L478.482 -590.954C505.381 -617.606 544.515 -628.106 581.14 -618.498L1105.92 -480.824C1142.55 -471.216 1171.1 -442.961 1180.82 -406.706L1320.18 112.86Z" stroke="#22221D"/>
<defs>
<radialGradient id="paint0_radial_983_25994" cx="0" cy="0" r="1" gradientUnits="userSpaceOnUse" gradientTransform="translate(543.35 -354.76) rotate(116.221) scale(1048.65 1090.56)">
<stop stop-color="#F4FF00"/>
<stop offset="0.380208" stop-color="#D8FF00"/>
<stop offset="1" stop-color="#D402BF"/>
</radialGradient>
</defs>
</svg>
