<svg width="96" height="96" viewBox="0 0 96 96" fill="none" xmlns="http://www.w3.org/2000/svg">
<path fill-rule="evenodd" clip-rule="evenodd" d="M73.595 21.233L60.6665 13.8314L56.2131 30.4517C56.1641 30.6407 56.1323 30.83 56.1167 31.0182C56.5514 30.9654 56.9828 30.8259 57.386 30.593L56.1054 31.3326C56.1054 31.3326 56.1054 31.3326 56.1054 31.3326L73.595 21.233ZM56.8975 33.4543C57.1781 32.8879 57.6219 32.3946 58.2079 32.0521L75.2765 22.1956L80.6745 25.286C82.7323 26.4641 84 28.6414 84 30.9976L84 41.3271L58.5885 34.5263C57.9024 34.3427 57.3234 33.9588 56.8975 33.4543ZM54.3061 30.7336C54.4316 30.504 54.5319 30.2559 54.6026 29.992L59.1635 12.9708L51.3255 8.48359C49.2677 7.30547 46.7323 7.30547 44.6745 8.48359L41.7292 10.1698L52.8242 29.3907C53.1833 30.0018 53.7069 30.4574 54.3061 30.7336ZM40.2756 11.002L51.3605 30.2055L51.3645 30.2125C51.7695 30.918 51.8892 31.7095 51.7595 32.4533C51.3495 32.5019 50.9235 32.475 50.5004 32.3617L18.1084 23.6928L40.2756 11.002ZM50.8039 34.2731C50.6071 34.4657 50.3832 34.637 50.1337 34.7811L12 56.802L12 30.9976C12 28.6414 13.2677 26.4641 15.3255 25.286L16.0448 24.8742L50.067 33.9794L50.0945 33.9869C50.3464 34.0566 50.5836 34.1533 50.8039 34.2731ZM12 58.7356L50.9708 36.2312L50.9848 36.2232C51.3837 35.9953 51.8099 35.8585 52.2393 35.8061C52.558 36.4932 52.6467 37.2918 52.4353 38.0808L40.0115 84.4469L15.3255 70.314C13.2677 69.1359 12 66.9586 12 64.6024L12 58.7356ZM55.0963 36.8472C55.2653 37.0289 55.4166 37.2324 55.546 37.4564L76.0431 72.9655L51.3255 87.1164C49.2677 88.2945 46.7323 88.2945 44.6745 87.1164L41.5146 85.3073L54.0528 38.5138L54.0594 38.4895C54.2421 37.8271 54.6119 37.2657 55.0963 36.8472ZM77.4967 72.1333L56.9965 36.6188C56.8944 36.442 56.8103 36.2597 56.7436 36.0741C57.193 35.9997 57.6647 36.0162 58.1333 36.1383L84 43.0609L84 64.6024C84 66.9586 82.7323 69.1359 80.6745 70.314L77.4967 72.1333Z" fill="#22221D"/>
<path opacity="0.5" fill-rule="evenodd" clip-rule="evenodd" d="M56.8969 33.4542C57.1776 32.8878 57.6213 32.3945 58.2073 32.0521L75.2758 22.1956L73.5944 21.233L56.105 31.3325L57.3854 30.593C56.9823 30.8258 56.5509 30.9653 56.1163 31.0182C56.1075 31.1234 56.1038 31.2283 56.105 31.3325C56.1141 32.1191 56.4022 32.868 56.8969 33.4542ZM40.275 11.002L41.7286 10.1698L52.8236 29.3907C53.1827 30.0018 53.7064 30.4574 54.3057 30.7337C53.783 31.6907 52.8246 32.3271 51.7589 32.4533C51.8886 31.7095 51.7689 30.9179 51.3639 30.2124L51.3599 30.2054L40.275 11.002ZM11.9994 58.7355L11.9994 56.8019L50.1331 34.781C50.3826 34.6369 50.6065 34.4657 50.8033 34.2731C51.4441 34.6215 51.9416 35.1653 52.2388 35.8061C51.8094 35.8584 51.3832 35.9953 50.9842 36.2231L50.9702 36.2312L11.9994 58.7355ZM77.4961 72.1333L76.0425 72.9655L55.5454 37.4564C55.4161 37.2324 55.2648 37.029 55.0958 36.8473C55.5607 36.4456 56.1312 36.1755 56.743 36.0741C56.8098 36.2597 56.8939 36.4419 56.9959 36.6187L77.4961 72.1333Z" fill="#22221D"/>
</svg>
