<svg width="40" height="40" viewBox="0 0 40 40" fill="none" xmlns="http://www.w3.org/2000/svg">
<path fill-rule="evenodd" clip-rule="evenodd" d="M25.1305 0.541408C28.5206 1.41597 31.3567 3.09397 34.1224 5.86169C38.1576 9.8989 40.0103 14.3128 40 19.8625C39.9889 25.7028 38.2069 30.0131 34.0738 34.1961C30.1715 38.1458 25.712 39.9921 20.0541 40C14.3369 40.0082 9.99704 38.204 5.87935 34.1071C1.82274 30.071 0 25.6946 0 19.9898C0 14.2935 1.82024 9.92356 5.88293 5.86633C9.97668 1.77766 14.0758 0.0467638 19.7726 0.000659037C21.5829 -0.0139944 23.8742 0.217245 25.1305 0.541408ZM15.3592 2.27445C13.9476 2.66795 10.9582 4.0586 9.76844 4.87526C9.54198 5.03037 10.9082 5.16297 12.8046 5.16976C14.7009 5.17655 17.118 5.39885 18.176 5.66404C19.9387 6.10544 20.1295 6.09293 20.4534 5.51322C20.6481 5.16547 21.3468 4.28376 22.0058 3.55359C22.6652 2.82342 23.1002 2.12148 22.9727 1.99425C22.5776 1.5986 17.053 1.80196 15.3592 2.27445ZM25.4573 3.10612C24.7058 3.23228 22.1458 5.83738 22.1458 6.4757C22.1458 6.63868 23.4888 7.42889 25.1305 8.23162C26.7721 9.0347 28.9017 10.2867 29.8633 11.0136C31.4828 12.2384 31.6113 12.4493 31.6113 13.8811V15.4265L28.5195 16.4351C26.8193 16.9894 24.2518 18.0037 22.8148 18.6885C21.3775 19.3736 20.0762 19.8568 19.9234 19.7621C19.7705 19.6674 19.6455 19.2803 19.6455 18.9015C19.6455 18.0573 22.3662 16.6177 27.0679 14.9751C28.8731 14.3443 30.2619 13.6848 30.1536 13.5094C30.0454 13.3342 29.0885 12.6352 28.0277 11.9561C22.808 8.61511 18.121 7.06363 13.0374 6.99358C9.73129 6.94819 9.30624 7.02431 7.32597 8.01682C3.69478 9.83671 2.78287 12.9897 4.68991 17.1306C5.73326 19.3961 8.93833 23.4047 9.96739 23.7318C10.4482 23.8844 11.1872 23.5566 12.3316 22.6824C13.2471 21.983 14.6941 21.0016 15.5474 20.5012C17.0262 19.6342 17.1091 19.4962 17.3202 17.5569C17.6348 14.6613 18.5628 9.95644 18.969 9.19732C19.3708 8.4457 20.302 8.34384 20.5624 9.02255C20.6613 9.28095 20.4909 10.4471 20.183 11.6137C18.9364 16.3421 18.8107 22.7443 19.8498 28.5981C20.0587 29.7758 19.9898 29.9155 18.9993 30.3262C17.7002 30.8644 16.0828 30.2501 12.2473 27.7608C7.58601 24.7357 3.29294 19.9279 2.65428 17.0183C2.48247 16.2363 2.34174 16.0912 2.10992 16.4576C1.60879 17.2492 1.73809 22.1578 2.31888 24.3883C2.91682 26.6864 4.48631 29.997 4.97745 29.997C5.15461 29.997 5.62396 29.4716 6.0208 28.8294C7.10201 27.0785 8.36933 26.0098 9.05299 26.2725C9.91346 26.6028 9.80344 26.9573 8.21538 28.9673C6.71196 30.8705 6.428 32.1135 7.32597 32.8591C8.67401 33.9788 15.776 32.4953 21.3693 29.9259C24.7169 28.3884 30.2522 25.0481 31.6692 23.711C32.8265 22.6188 32.8612 22.503 32.8544 19.7689C32.8301 10.0594 29.4461 2.43671 25.4573 3.10612ZM32.519 6.79165C32.5107 6.90387 32.7376 7.70802 33.0222 8.57865C33.3073 9.44893 33.7105 10.8274 33.9188 11.6416C34.2596 12.975 34.4206 13.1362 35.5437 13.2674C36.2695 13.3521 36.7892 13.2563 36.7874 13.038C36.7792 12.1323 32.5765 5.98177 32.519 6.79165ZM35.0047 15.2317C35.0047 15.4072 36.237 17.1913 37.0499 18.1924C37.2935 18.4926 37.8511 17.3314 37.8568 16.5119C37.8607 15.9304 37.5961 15.6563 36.8799 15.4994C36.3395 15.3807 35.6969 15.222 35.4511 15.1463C35.2057 15.0705 35.0047 15.1091 35.0047 15.2317ZM34.6475 19.6077C34.6475 20.9376 34.721 21.0884 35.1832 20.7046C35.849 20.1517 35.8458 19.6517 35.1718 18.76C34.6846 18.1152 34.6475 18.1756 34.6475 19.6077ZM14.5362 23.403C13.2207 24.2861 12.1448 25.1256 12.1452 25.269C12.1463 25.77 17.4145 28.7747 17.7327 28.4559C17.8756 28.3129 17.1787 22.0866 16.9962 21.8765C16.9587 21.8332 15.8517 22.5202 14.5362 23.403ZM35.6051 23.0055C34.7875 23.6578 34.4753 24.3729 33.9438 26.8133C33.5837 28.4663 33.3626 29.8944 33.4527 29.9874C33.7877 30.334 35.5519 29.0445 36.3359 27.8798C36.9481 26.9709 37.1478 26.1657 37.1478 24.6042C37.1478 23.4655 37.0271 22.4591 36.8799 22.3679C36.7324 22.2768 36.1587 22.5638 35.6051 23.0055ZM30.598 26.8444C30.0404 27.26 28.3713 28.2919 26.8889 29.1375C24.5072 30.4956 24.2936 30.6993 25.0523 30.8898C25.5248 31.0085 27.0314 31.0571 28.4006 30.9981C31.1945 30.8773 31.4742 30.6096 31.9639 27.5846C32.2411 25.873 32.0435 25.7657 30.598 26.8444ZM21.0742 32.3873C21.0742 33.0035 23.1399 35.9781 23.9739 36.5625C24.929 37.2319 26.1681 37.3116 27.1811 36.7691C27.8683 36.4013 30.004 33.7097 30.004 33.2118C30.004 33.0735 28.4366 32.858 26.5214 32.7333C24.6061 32.6082 22.5969 32.4052 22.0565 32.2822C21.5161 32.1589 21.0742 32.2061 21.0742 32.3873ZM32.3111 32.8802C31.9267 33.5024 32.3643 33.6343 32.8544 33.0435C33.1362 32.704 33.1633 32.4988 32.9262 32.4988C32.7176 32.4988 32.4404 32.6704 32.3111 32.8802ZM16.7879 33.6568C15.7074 34.0446 13.6982 34.5596 12.3231 34.8016L9.82273 35.2408L11.9659 36.327C13.1446 36.9242 14.9609 37.5939 16.0018 37.8152C18.1971 38.2816 22.503 38.3538 22.503 37.9242C22.503 37.7634 22.1269 37.3041 21.6672 36.9042C21.2071 36.5039 20.4695 35.4295 20.0277 34.5164C19.5862 33.6032 19.1183 32.8777 18.9886 32.9038C18.8586 32.9299 17.8684 33.2687 16.7879 33.6568Z" fill="#22221D"/>
</svg>
