<svg width="96" height="108" viewBox="0 0 96 108" fill="none" xmlns="http://www.w3.org/2000/svg">
<path fill-rule="evenodd" clip-rule="evenodd" d="M82.1267 18.3111L64.8887 8.44226L58.9508 30.6028C58.8855 30.8547 58.8431 31.1072 58.8222 31.3581C59.4018 31.2876 59.9771 31.1016 60.5147 30.7912L82.1267 18.3111ZM59.8633 34.6062C60.2375 33.851 60.8292 33.1932 61.6105 32.7366L84.3686 19.5946L91.566 23.7151C94.3098 25.2859 96 28.189 96 31.3306L96 45.1033L62.118 36.0355C61.2032 35.7907 60.4311 35.2788 59.8633 34.6062ZM56.4082 30.9786C56.5754 30.6724 56.7092 30.3417 56.8035 29.9898L62.8846 7.29492L52.4341 1.31191C49.6902 -0.258922 46.3098 -0.258923 43.566 1.31191L39.6389 3.56016L54.4322 29.1881C54.911 30.0029 55.6091 30.6103 56.4082 30.9786ZM37.7008 4.66975L52.4807 30.2744L52.4861 30.2838C53.026 31.2244 53.1857 32.2798 53.0127 33.2715C52.466 33.3363 51.898 33.3004 51.3338 33.1494L8.14456 21.5908L37.7008 4.66975ZM51.7386 35.698C51.4761 35.9547 51.1776 36.1831 50.845 36.3752L1.23912e-05 65.7364L1.38951e-05 31.3306C1.40325e-05 28.1889 1.69026 25.2859 4.43405 23.7151L5.39302 23.1661L50.7559 35.3063L50.7926 35.3163C51.1285 35.4092 51.4448 35.5382 51.7386 35.698ZM1.22785e-05 68.3146L51.9611 38.3088L51.9798 38.298C52.5116 37.9942 53.0799 37.8118 53.6524 37.742C54.0774 38.6581 54.1956 39.7229 53.9137 40.7749L37.3487 102.596L4.43406 83.7525C1.69026 82.1817 1.17993e-05 79.2786 1.19366e-05 76.137L1.22785e-05 68.3146ZM57.4617 39.1301C57.6871 39.3723 57.8889 39.6436 58.0613 39.9423L85.3908 87.2878L52.434 106.156C49.6903 107.726 46.3097 107.726 43.566 106.156L39.3528 103.744L56.0704 41.3521L56.0792 41.3198C56.3228 40.4366 56.8159 39.6881 57.4617 39.1301ZM87.3289 86.1782L59.9954 38.8255C59.8593 38.5897 59.7471 38.3467 59.6582 38.0993C60.2573 38 60.8862 38.022 61.5111 38.1849L96 47.415L96 76.137C96 79.2786 94.3097 82.1817 91.5659 83.7525L87.3289 86.1782Z" fill="#22221D"/>
<path opacity="0.5" fill-rule="evenodd" clip-rule="evenodd" d="M59.8626 34.6064C60.2368 33.8513 60.8284 33.1935 61.6097 32.7369L84.3677 19.5949L82.1258 18.3114L60.5139 30.7915C59.9764 31.1019 59.4012 31.2879 58.8217 31.3584C58.81 31.4987 58.8051 31.6385 58.8067 31.7775C58.8188 32.8263 59.2029 33.8249 59.8626 34.6064ZM37.7 4.67014L39.6381 3.56054L54.4314 29.1884C54.9102 30.0033 55.6085 30.6108 56.4076 30.979C55.7107 32.2551 54.4328 33.1036 53.0118 33.272C53.1848 32.2802 53.0252 31.2248 52.4852 30.2841L52.4798 30.2747L37.7 4.67014ZM-0.000811546 68.3149L-0.000811434 65.7368L50.8441 36.3755C51.1768 36.1834 51.4753 35.9551 51.7378 35.6983C52.5922 36.1629 53.2554 36.8879 53.6518 37.7423C53.0792 37.8121 52.5109 37.9945 51.9789 38.2984L51.9602 38.3091L-0.000811546 68.3149ZM87.3281 86.1786L85.39 87.2882L58.0605 39.9427C57.8881 39.644 57.6864 39.3728 57.4611 39.1306C58.0809 38.595 58.8415 38.2349 59.6574 38.0997C59.7463 38.3471 59.8585 38.5901 59.9945 38.8258L87.3281 86.1786Z" fill="#22221D"/>
</svg>
