<svg width="318" height="318" viewBox="0 0 318 318" fill="none" xmlns="http://www.w3.org/2000/svg">
<path d="M286 219.77C286 228.151 281.528 235.896 274.268 240.087L170.732 299.857C163.472 304.048 154.528 304.048 147.268 299.857L43.7318 240.087C36.4721 235.896 32 228.151 32 219.77L32 100.23C32 91.8486 36.4721 84.1036 43.7318 79.9128L147.268 20.1431C154.528 15.9523 163.472 15.9523 170.732 20.1431L274.268 79.9128C281.528 84.1036 286 91.8487 286 100.23L286 219.77Z" fill="#22221D"/>
<path fill-rule="evenodd" clip-rule="evenodd" d="M244.675 71.3012L201.714 46.706L186.916 101.934C186.753 102.562 186.647 103.192 186.595 103.817C188.04 103.641 189.474 103.178 190.814 102.404L186.558 104.862C186.558 104.862 186.558 104.862 186.558 104.862L244.675 71.3012ZM189.19 111.912C190.123 110.03 191.598 108.39 193.545 107.252L250.262 74.5L268.2 84.769C275.038 88.6838 279.25 95.9187 279.25 103.748L279.25 138.073L194.809 115.474C192.529 114.864 190.605 113.588 189.19 111.912ZM180.87 103L181.564 100.407C181.329 101.284 180.996 102.108 180.579 102.871C178.588 101.953 176.848 100.439 175.655 98.4088L138.788 34.5392L148.575 28.9361C155.413 25.0213 163.837 25.0213 170.675 28.9361L196.72 43.8466L180.87 103C180.87 103 180.87 103 180.87 103ZM133.957 37.3045L170.792 101.116L170.805 101.139C172.151 103.484 172.549 106.114 172.118 108.585C170.755 108.747 169.339 108.657 167.933 108.281L60.2976 79.475L133.957 37.3045ZM168.942 114.633C168.288 115.273 167.544 115.842 166.715 116.32L40 189.494L40 103.748C40 95.9187 44.2124 88.6838 51.0505 84.769L53.4402 83.4009L166.493 113.657C166.523 113.665 166.554 113.673 166.584 113.681C167.421 113.913 168.21 114.235 168.942 114.633ZM40 195.919L169.497 121.139L169.543 121.112C170.869 120.355 172.285 119.901 173.711 119.727C174.77 122.01 175.065 124.663 174.362 127.285L133.079 281.355L51.0505 234.393C44.2124 230.479 40 223.244 40 215.414L40 195.919ZM183.205 123.186C183.767 123.79 184.27 124.466 184.7 125.21L252.81 243.204L170.675 290.226C163.837 294.141 155.413 294.141 148.575 290.226L138.074 284.215L179.737 128.724C179.745 128.697 179.752 128.67 179.759 128.643C180.366 126.442 181.595 124.576 183.205 123.186ZM257.64 240.439L189.52 122.427C189.18 121.839 188.901 121.234 188.679 120.617C190.172 120.37 191.739 120.425 193.297 120.83L279.25 143.834L279.25 215.414C279.25 223.244 275.038 230.479 268.2 234.393L257.64 240.439Z" fill="url(#paint0_radial_1063_339)"/>
<path opacity="0.75" fill-rule="evenodd" clip-rule="evenodd" d="M189.191 111.911C190.124 110.029 191.598 108.39 193.546 107.252L250.263 74.4999L244.676 71.3011L186.56 104.861L190.815 102.404C189.475 103.177 188.041 103.641 186.597 103.817C186.568 104.166 186.556 104.515 186.56 104.861C186.59 107.475 187.547 109.963 189.191 111.911ZM133.958 37.3044L138.788 34.5391L175.656 98.4086C176.849 100.439 178.589 101.953 180.581 102.871C178.844 106.051 175.659 108.166 172.118 108.585C172.549 106.114 172.151 103.484 170.806 101.139L170.792 101.116L133.958 37.3044ZM40.0005 195.919L40.0005 189.494L166.716 116.32C167.545 115.841 168.289 115.272 168.943 114.632C171.072 115.79 172.725 117.597 173.713 119.726C172.286 119.9 170.87 120.355 169.544 121.112L169.497 121.139L40.0005 195.919ZM257.641 240.439L252.81 243.204L184.7 125.21C184.271 124.466 183.768 123.79 183.206 123.186C184.751 121.851 186.647 120.954 188.68 120.617C188.902 121.234 189.181 121.839 189.52 122.427L257.641 240.439Z" fill="url(#paint1_radial_1063_339)"/>
<defs>
<radialGradient id="paint0_radial_1063_339" cx="0" cy="0" r="1" gradientUnits="userSpaceOnUse" gradientTransform="translate(279 11) rotate(133.392) scale(327.519 331.216)">
<stop stop-color="#F4FF00"/>
<stop offset="0.359375" stop-color="#D8FF00"/>
<stop offset="1" stop-color="#D402BF"/>
</radialGradient>
<radialGradient id="paint1_radial_1063_339" cx="0" cy="0" r="1" gradientUnits="userSpaceOnUse" gradientTransform="translate(166.473 105.012) rotate(155.736) scale(151.124 153.616)">
<stop stop-color="#E9FF01"/>
<stop offset="1" stop-color="#D402BF"/>
</radialGradient>
</defs>
</svg>
