<svg width="24" height="24" viewBox="0 0 24 24" fill="none" xmlns="http://www.w3.org/2000/svg">
<path opacity="0.6" fill-rule="evenodd" clip-rule="evenodd" d="M15.0783 0.324845C17.1123 0.849582 18.814 1.85638 20.4734 3.51701C22.8945 5.93934 24.0062 8.58768 24 11.9175C23.9933 15.4217 22.9241 18.0079 20.4443 20.5177C18.1029 22.8875 15.4272 23.9953 12.0325 24C8.60214 24.0049 5.99823 22.9224 3.52761 20.4643C1.09364 18.0426 0 15.4168 0 11.9939C0 8.5761 1.09215 5.95413 3.52975 3.5198C5.98601 1.0666 8.44548 0.0280583 11.8636 0.000395422C12.9497 -0.00839666 14.3245 0.130347 15.0783 0.324845ZM9.21551 1.36467C8.36854 1.60077 6.57494 2.43516 5.86106 2.92516C5.72519 3.01822 6.54494 3.09778 7.68273 3.10186C8.82053 3.10593 10.2708 3.23931 10.9056 3.39843C11.9632 3.66326 12.0777 3.65576 12.2721 3.30793C12.3889 3.09928 12.8081 2.57026 13.2035 2.13215C13.5991 1.69405 13.8601 1.27289 13.7836 1.19655C13.5466 0.959161 10.2318 1.08118 9.21551 1.36467ZM15.2744 1.86367C14.8235 1.93937 13.2875 3.50243 13.2875 3.88542C13.2875 3.98321 14.0933 4.45734 15.0783 4.93897C16.0633 5.42082 17.341 6.17201 17.918 6.60818C18.8897 7.34307 18.9668 7.46959 18.9668 8.32864V9.25588L17.1117 9.86103C16.0916 10.1936 14.5511 10.8022 13.6889 11.2131C12.8265 11.6242 12.0457 11.9141 11.954 11.8573C11.8623 11.8004 11.7873 11.5682 11.7873 11.3409C11.7873 10.8344 13.4197 9.97061 16.2407 8.98504C17.3239 8.60655 18.1571 8.21091 18.0922 8.10562C18.0273 8.00054 17.4531 7.5811 16.8166 7.17366C13.6848 5.16907 10.8726 4.23818 7.82247 4.19615C5.83878 4.16891 5.58374 4.21459 4.39558 4.81009C2.21687 5.90202 1.66972 7.79382 2.81395 10.2783C3.43996 11.6377 5.363 14.0428 5.98044 14.2391C6.2689 14.3306 6.71232 14.134 7.39898 13.6095C7.94827 13.1898 8.81646 12.6009 9.32845 12.3007C10.2157 11.7805 10.2654 11.6977 10.3921 10.5342C10.5809 8.79676 11.1377 5.97386 11.3814 5.51839C11.6225 5.06742 12.1812 5.0063 12.3374 5.41353C12.3968 5.56857 12.2946 6.26829 12.1098 6.96822C11.3619 9.80528 11.2864 13.6466 11.9099 17.1589C12.0352 17.8655 11.9939 17.9493 11.3996 18.1957C10.6201 18.5187 9.64971 18.15 7.3484 16.6565C4.5516 14.8414 1.97576 11.9568 1.59257 10.211C1.48948 9.7418 1.40504 9.65474 1.26595 9.87454C0.965271 10.3495 1.04285 13.2947 1.39133 14.633C1.75009 16.0118 2.69179 17.9982 2.98647 17.9982C3.09277 17.9982 3.37438 17.683 3.61248 17.2976C4.26121 16.2471 5.0216 15.6059 5.43179 15.7635C5.94808 15.9617 5.88207 16.1744 4.92923 17.3804C4.02718 18.5223 3.8568 19.2681 4.39558 19.7155C5.20441 20.3873 9.46561 19.4972 12.8216 17.9555C14.8301 17.033 18.1513 15.0288 19.0015 14.2266C19.6959 13.5713 19.7167 13.5018 19.7126 11.8613C19.698 6.03562 17.6676 1.46203 15.2744 1.86367ZM19.5114 4.07499C19.5064 4.14232 19.6425 4.62481 19.8133 5.14719C19.9844 5.66936 20.2263 6.49645 20.3513 6.98495C20.5557 7.78503 20.6524 7.88174 21.3262 7.96044C21.7617 8.01127 22.0735 7.9538 22.0724 7.82277C22.0675 7.27938 19.5459 3.58906 19.5114 4.07499ZM21.0028 9.13901C21.0028 9.2443 21.7422 10.3148 22.23 10.9154C22.3761 11.0956 22.7107 10.3989 22.7141 9.90714C22.7164 9.55824 22.5576 9.39377 22.1279 9.29963C21.8037 9.22843 21.4181 9.13322 21.2707 9.08776C21.1234 9.0423 21.0028 9.06546 21.0028 9.13901ZM20.7885 11.7646C20.7885 12.5626 20.8326 12.6531 21.1099 12.4227C21.5094 12.091 21.5075 11.791 21.1031 11.256C20.8108 10.8691 20.7885 10.9054 20.7885 11.7646ZM8.72173 14.0418C7.93241 14.5717 7.2869 15.0754 7.28711 15.1614C7.28775 15.462 10.4487 17.2648 10.6396 17.0735C10.7254 16.9878 10.3072 13.252 10.1977 13.1259C10.1752 13.0999 9.51105 13.5121 8.72173 14.0418ZM21.3631 13.8033C20.8725 14.1947 20.6852 14.6238 20.3663 16.088C20.1502 17.0798 20.0176 17.9367 20.0716 17.9924C20.2726 18.2004 21.3311 17.4267 21.8015 16.7279C22.1689 16.1825 22.2887 15.6994 22.2887 14.7625C22.2887 14.0793 22.2162 13.4754 22.1279 13.4208C22.0394 13.3661 21.6952 13.5383 21.3631 13.8033ZM18.3588 16.1066C18.0243 16.356 17.0228 16.9751 16.1334 17.4825C14.7043 18.2974 14.5761 18.4196 15.0314 18.5339C15.3149 18.6051 16.2189 18.6342 17.0403 18.5989C18.7167 18.5264 18.8845 18.3658 19.1783 16.5507C19.3446 15.5238 19.2261 15.4594 18.3588 16.1066ZM12.6445 19.4324C12.6445 19.8021 13.8839 21.5869 14.3843 21.9375C14.9574 22.3391 15.7009 22.387 16.3087 22.0614C16.721 21.8408 18.0024 20.2258 18.0024 19.9271C18.0024 19.8441 17.062 19.7148 15.9128 19.64C14.7637 19.5649 13.5582 19.4431 13.2339 19.3693C12.9096 19.2954 12.6445 19.3237 12.6445 19.4324ZM19.3866 19.7281C19.156 20.1014 19.4186 20.1806 19.7126 19.8261C19.8817 19.6224 19.898 19.4993 19.7557 19.4993C19.6305 19.4993 19.4642 19.6022 19.3866 19.7281ZM10.0728 20.1941C9.42447 20.4268 8.21895 20.7358 7.39384 20.8809L5.89364 21.1445L7.17952 21.7962C7.88676 22.1545 8.97655 22.5564 9.60106 22.6891C10.9182 22.969 13.5018 23.0123 13.5018 22.7545C13.5018 22.658 13.2761 22.3825 13.0003 22.1425C12.7243 21.9023 12.2817 21.2577 12.0166 20.7098C11.7517 20.1619 11.471 19.7266 11.3932 19.7423C11.3151 19.7579 10.7211 19.9612 10.0728 20.1941Z" fill="white"/>
</svg>
