<svg width="72" height="81" viewBox="0 0 72 81" fill="none" xmlns="http://www.w3.org/2000/svg">
<path fill-rule="evenodd" clip-rule="evenodd" d="M61.595 14.233L48.6665 6.83136L44.2131 23.4517C44.1641 23.6407 44.1323 23.83 44.1167 24.0182C44.5514 23.9654 44.9828 23.8259 45.386 23.593L61.595 14.233ZM44.8975 26.4543C45.1781 25.8879 45.6219 25.3946 46.2079 25.0521L63.2765 15.1956L68.6745 18.286C70.7323 19.4641 72 21.6414 72 23.9976L72 34.3271L46.5885 27.5263C45.9024 27.3427 45.3233 26.9588 44.8975 26.4543ZM42.3061 23.7336C42.4315 23.504 42.5319 23.2559 42.6026 22.992L47.1635 5.97085L39.3255 1.48359C37.2677 0.305465 34.7323 0.305465 32.6745 1.48359L29.7292 3.16978L40.8242 22.3908C41.1833 23.0018 41.7068 23.4574 42.3061 23.7336ZM28.2756 4.00198L39.3605 23.2055L39.3645 23.2125C39.7695 23.918 39.8892 24.7095 39.7595 25.4533C39.3495 25.5019 38.9235 25.475 38.5004 25.3617L6.10841 16.6928L28.2756 4.00198ZM38.8039 27.2731C38.6071 27.4657 38.3832 27.637 38.1337 27.7811L-2.15069e-06 49.802L-1.02274e-06 23.9976C-9.19747e-07 21.6414 1.26768 19.4641 3.32553 18.286L4.04475 17.8742L38.067 26.9794L38.0945 26.9869C38.3464 27.0565 38.5836 27.1533 38.8039 27.2731ZM-2.23521e-06 51.7356L38.9708 29.2312L38.9848 29.2232C39.3837 28.9953 39.8099 28.8585 40.2393 28.8061C40.558 29.4932 40.6467 30.2918 40.4353 31.0808L28.0115 77.4469L3.32554 63.314C1.2677 62.1359 -2.59465e-06 59.9586 -2.49165e-06 57.6024L-2.23521e-06 51.7356ZM43.0963 29.8472C43.2653 30.0289 43.4166 30.2324 43.546 30.4564L64.043 65.9655L39.3255 80.1164C37.2677 81.2945 34.7323 81.2945 32.6745 80.1164L29.5146 78.3073L42.0528 31.5138L42.0594 31.4895C42.2421 30.8271 42.6119 30.2657 43.0963 29.8472ZM65.4967 65.1333L44.9965 29.6188C44.8944 29.442 44.8103 29.2597 44.7436 29.0741C45.193 28.9997 45.6647 29.0162 46.1333 29.1383L72 36.0609L72 57.6024C72 59.9586 70.7323 62.1359 68.6745 63.314L65.4967 65.1333Z" fill="url(#paint0_radial_1489_172)"/>
<path opacity="0.25" fill-rule="evenodd" clip-rule="evenodd" d="M44.8969 26.4542C45.1776 25.8878 45.6213 25.3945 46.2073 25.0521L63.2758 15.1956L61.5943 14.2329L45.3854 23.593C44.9823 23.8258 44.5509 23.9653 44.1163 24.0182C44.1075 24.1234 44.1038 24.2283 44.105 24.3325C44.1141 25.1191 44.4022 25.868 44.8969 26.4542ZM28.275 4.00196L29.7286 3.16977L40.8236 22.3907C41.1827 23.0018 41.7064 23.4574 42.3057 23.7337C41.783 24.6907 40.8246 25.3271 39.7589 25.4533C39.8886 24.7095 39.7689 23.9179 39.3639 23.2124L39.3599 23.2054L28.275 4.00196ZM-0.000612474 51.7355L-0.00061239 49.8019L38.1331 27.781C38.3826 27.6369 38.6065 27.4657 38.8033 27.2731C39.4441 27.6215 39.9416 28.1653 40.2388 28.8061C39.8094 28.8584 39.3832 28.9953 38.9842 29.2231L38.9702 29.2312L-0.000612474 51.7355ZM65.4961 65.1333L64.0425 65.9655L43.5454 30.4564C43.4161 30.2324 43.2648 30.029 43.0958 29.8473C43.5607 29.4456 44.1311 29.1755 44.743 29.0741C44.8098 29.2597 44.8938 29.4419 44.9959 29.6187L65.4961 65.1333Z" fill="url(#paint1_radial_1489_172)"/>
<defs>
<radialGradient id="paint0_radial_1489_172" cx="0" cy="0" r="1" gradientUnits="userSpaceOnUse" gradientTransform="translate(71.9248 -3.91411) rotate(133.392) scale(98.5638 99.6762)">
<stop stop-color="#F4FF00"/>
<stop offset="0.359375" stop-color="#D8FF00"/>
<stop offset="1" stop-color="#D402BF"/>
</radialGradient>
<radialGradient id="paint1_radial_1489_172" cx="0" cy="0" r="1" gradientUnits="userSpaceOnUse" gradientTransform="translate(93.3322 42.9769) rotate(-165.337) scale(96.4747 85.6809)">
<stop stop-color="#F4FF00"/>
<stop offset="0.359375" stop-color="#D8FF00"/>
<stop offset="1" stop-color="#D402BF"/>
</radialGradient>
</defs>
</svg>
